<svg width="132" height="132" viewBox="0 0 132 132" fill="none" xmlns="http://www.w3.org/2000/svg">
<circle cx="66" cy="66" r="66" fill="#F6FAFC"/>
<circle cx="5.75" cy="5.75" r="5.75" transform="matrix(-1 0 0 1 72.5 48)" fill="#00ABDF"/>
<path d="M86.1546 39H46.8507C45.8302 39 45 39.8076 45 40.8004V92.1996C45 93.1924 45.8302 94 46.8507 94H86.1493C87.1698 94 88 93.1924 88 92.1996V40.8004C88.0053 39.8076 87.1751 39 86.1546 39ZM84.1558 42.6008C83.3415 47.5442 79.2435 51.4228 74.1091 52.0658C73.2419 48.8817 70.2596 46.5206 66.7168 46.5206C63.1528 46.5206 60.16 48.9074 59.3086 52.1173C53.9839 51.644 49.6797 47.678 48.8495 42.6008H84.1558ZM70.672 53.9691C70.672 56.0885 68.9006 57.8169 66.7168 57.8169C64.5382 57.8169 62.7615 56.0936 62.7615 53.9691C62.7615 51.8498 64.5329 50.1214 66.7168 50.1214C68.9006 50.1214 70.672 51.8498 70.672 53.9691ZM48.7014 50.5226C51.303 53.4753 55.0573 55.4352 59.2875 55.7284C60.1018 58.9897 63.1211 61.4177 66.7168 61.4177C70.3283 61.4177 73.3529 58.9691 74.1566 55.6975C78.2018 55.3066 81.7922 53.3776 84.2985 50.5278V90.4043H48.7014V50.5226Z" fill="#1B1C1C"/>
<path d="M66.7168 64.6996C65.6962 64.6996 64.8661 65.5072 64.8661 66.5V79.4938C64.8661 80.4866 65.6962 81.2942 66.7168 81.2942C67.7373 81.2942 68.5675 80.4866 68.5675 79.4938V66.5C68.5675 65.5072 67.7426 64.6996 66.7168 64.6996Z" fill="#1B1C1C"/>
</svg>
