<svg width="132" height="132" viewBox="0 0 132 132" fill="none" xmlns="http://www.w3.org/2000/svg">
<circle cx="66" cy="66" r="66" fill="#F6FAFC"/>
<path d="M52 51.5V62L59 58L67 62.5L74.5 58L81 62.5V51.5H52Z" fill="#00ABDF"/>
<path d="M88 69H45.5L44.5 76.5L52 80.5L59 76.5L67 80.5L74.5 76.5L82 80.5L88.5 76.5L88 69Z" fill="#00ABDF"/>
<path d="M93.1389 90.3328H90.6592V72.5514C90.6592 69.5295 88.1576 67.0721 85.0812 67.0721H83.2201V54.2961C83.2201 51.2741 80.7185 48.8168 77.6422 48.8168H68.3584V47.2843C71.6428 46.139 73.0714 42.3481 71.3307 39.3907L68.1121 33.9114C67.395 32.6962 65.605 32.6962 64.8934 33.9114L61.6693 39.3961C59.9285 42.3589 61.3627 46.1497 64.6416 47.2897V48.8222H55.3469C52.2705 48.8222 49.7689 51.2795 49.7689 54.3015V67.0829H47.9078C44.8315 67.0829 42.3299 69.5402 42.3299 72.5622C42.3299 73.0138 42.3299 86.5043 42.3299 90.3436H39.8611C38.832 90.3436 38 91.1609 38 92.1718C38 93.1827 38.832 94 39.8611 94C40.9778 94 88.174 94 93.1389 94C94.168 94 95 93.1827 95 92.1718C95 91.1501 94.168 90.3328 93.1389 90.3328ZM64.8879 41.2189L66.5027 38.4766L68.1121 41.2189C68.8237 42.4288 67.926 43.9505 66.5027 43.9505C65.0686 43.9505 64.1818 42.4234 64.8879 41.2189ZM53.4912 54.2961C53.4912 53.2906 54.3232 52.4679 55.3523 52.4679H77.6531C78.6768 52.4679 79.5143 53.2852 79.5143 54.2961V59.5549C79.3391 59.3828 79.153 59.1893 78.945 58.9634C77.8666 57.8127 76.3886 56.2318 73.8597 56.2318C71.3307 56.2318 69.8528 57.8073 68.7744 58.958C67.7453 60.0603 67.2417 60.5067 66.4261 60.5067C65.5831 60.5067 65.0357 59.9743 64.0723 58.9527C62.9885 57.802 61.4996 56.2318 58.9925 56.2318C56.4636 56.2318 54.9856 57.8073 53.9072 58.958C53.7594 59.114 53.6281 59.2592 53.4967 59.3882L53.4912 54.2961ZM53.4912 63.819C54.9035 63.292 55.8724 62.2542 56.6387 61.4369C57.6678 60.3346 58.1714 59.8883 58.987 59.8883C59.83 59.8883 60.3774 60.4206 61.3408 61.4423C62.4247 62.593 63.9136 64.1631 66.4206 64.1631C68.9551 64.1631 70.4275 62.5876 71.5059 61.4315C72.535 60.3292 73.0386 59.8829 73.8542 59.8829C74.6753 59.8829 75.1734 60.3292 76.2025 61.4315C77.0017 62.2811 78.0144 63.3673 79.5088 63.8727V67.0721H53.4912V63.819ZM46.0576 90.3328V79.2889C46.0576 79.2889 46.0576 79.2889 46.0631 79.2943C47.3549 80.687 48.9643 82.4238 51.5534 82.4238C54.0879 82.4238 55.5604 80.8483 56.6387 79.6922C57.6678 78.5899 58.1714 78.1436 58.987 78.1436C59.83 78.1436 60.3774 78.6759 61.3408 79.6976C62.4247 80.8483 63.9136 82.4184 66.4206 82.4184C68.9551 82.4184 70.4275 80.8429 71.5059 79.6868C72.535 78.5845 73.0386 78.1382 73.8542 78.1382C74.6753 78.1382 75.1734 78.5845 76.2025 79.6868C77.2809 80.8375 78.7534 82.413 81.2878 82.413C83.8222 82.413 85.2947 80.8375 86.3731 79.6815C86.5811 79.4556 86.7727 79.262 86.9424 79.09V90.3274L46.0576 90.3328ZM86.9424 74.7775C85.448 75.283 84.4298 76.3691 83.6361 77.2187C82.607 78.321 82.1034 78.7673 81.2878 78.7673C80.4722 78.7673 79.9686 78.321 78.9395 77.2187C77.8611 76.068 76.3832 74.4872 73.8542 74.4872C71.3253 74.4872 69.8473 76.0627 68.7689 77.2134C67.7398 78.3157 67.2362 78.762 66.4206 78.762C65.5776 78.762 65.0302 78.2296 64.0668 77.208C62.983 76.0573 61.4941 74.4872 58.987 74.4872C56.4581 74.4872 54.9801 76.0627 53.9018 77.2134C52.8727 78.3157 52.3691 78.762 51.5534 78.762C50.6667 78.762 49.9277 78.0307 48.811 76.8262C48.0282 75.982 47.1688 75.0571 46.0631 74.4495V72.546C46.0631 71.5405 46.8951 70.7178 47.9242 70.7178C48.9041 70.7178 84.0686 70.7178 85.0977 70.7178C86.1213 70.7178 86.9588 71.5351 86.9588 72.546L86.9424 74.7775Z" fill="#1B1C1C"/>
</svg>
