<svg width="132" height="132" viewBox="0 0 132 132" fill="none" xmlns="http://www.w3.org/2000/svg">
<circle cx="66" cy="66" r="66" fill="#F6FAFC"/>
<path d="M53 49.4996C55 46.4996 60.5 44.9996 65.5 44.9996C73.9 44.5996 80.3333 49.4996 82.5 51.9996L81.5 60.9996C78.5 57 74 51.5 65 51.5C58.5 51.5 54.6667 55.8333 53 57.5V49.4996Z" fill="#00ABDF"/>
<path d="M50 83.5V73.5C52.5 77.5 59.1 82.5 65.5 82.5C73.5 82.5 78.8333 76.5 80.5 73.5H84.5V78.5C82.5 83 74.5 89.5 65.5 89.5C58.6882 89.5 52.3333 85.3333 50 83.5Z" fill="#00ABDF"/>
<path d="M92.0495 40.2113C91.4614 39.9021 90.7578 39.9381 90.2064 40.299C87.3498 42.1701 84.1151 44.567 81.8257 49.3763C77.357 45.4227 71.5703 43.2474 65.5 43.2474C61.6509 43.2474 57.8176 44.1443 54.3887 45.8505V41.7629C54.3887 40.7887 53.5853 40 52.5928 40C51.6003 40 50.7969 40.7887 50.7969 41.7629V52.6701H47.9928V41.768C47.9928 40.7938 47.1842 40.0052 46.197 40.0052C45.2098 40.0052 44.4011 40.7938 44.4011 41.768V52.6753H41.5918V41.768C41.5918 40.7938 40.7831 40.0052 39.7959 40.0052C38.8087 40.0052 38 40.7938 38 41.768V57.5773C38 59.6031 39.2813 61.4227 41.1979 62.1546V89.0928C41.1979 91.799 43.4401 94 46.1917 94C48.9433 94 51.1908 91.799 51.1908 89.0928V86.2371C55.3654 89.2216 60.4327 90.8608 65.5 90.8608C72.0534 90.8608 78.4072 88.1856 83.0072 83.5052V89.0928C83.0072 91.799 85.2494 94 88.0062 94C90.763 94 93 91.799 93 89.0928V41.768C93 41.1186 92.6377 40.5206 92.0495 40.2113ZM47.599 62.4845V89.0928C47.599 89.8505 46.9689 90.4691 46.197 90.4691C45.4251 90.4691 44.7949 89.8505 44.7949 89.0928V62.4845H47.599ZM79.8723 56.6186C76.4748 52.1701 71.1397 49.5309 65.4947 49.5309C61.4777 49.5309 57.5498 50.866 54.3834 53.2938V49.8969C57.6444 47.8814 61.5827 46.7732 65.4947 46.7732C71.1554 46.7732 76.6113 49.0464 80.4866 53.0206C80.1768 54.2062 79.972 55.4124 79.8723 56.6186ZM65.5 53.0619C73.3871 53.0619 79.8092 59.3144 79.8092 67C79.8092 74.6856 73.3924 80.9381 65.5 80.9381C57.6076 80.9381 51.1908 74.6856 51.1908 67C51.1908 65.1082 51.5741 63.2732 52.325 61.5464C53.4225 60.7629 54.1576 59.567 54.3414 58.2577C57.0247 55 61.1941 53.0619 65.5 53.0619ZM51.1908 77.4691C54.5935 81.8608 59.8971 84.4691 65.5 84.4691C72.2004 84.4691 78.2707 80.8557 81.3898 75.0361C81.4633 75.0464 81.5316 75.0464 81.6051 75.0464H83.0072V77.8247C79.2159 83.6856 72.5102 87.3247 65.5 87.3247C60.2647 87.3247 55.0556 85.2577 51.1908 81.6443V77.4691ZM50.7969 56.201V57.5773C50.7969 58.3351 50.1668 58.9536 49.3949 58.9536H42.9938C42.2219 58.9536 41.5918 58.3351 41.5918 57.5773V56.201H50.7969ZM84.803 71.5206H83.401V58.2423C83.401 53.3093 85.638 48.4794 89.4082 45.2371V89.0928C89.4082 89.8505 88.7781 90.4691 88.0062 90.4691C87.2343 90.4691 86.6042 89.8505 86.6042 89.0928V73.2835C86.5989 72.3093 85.7955 71.5206 84.803 71.5206Z" fill="#1B1C1C"/>
</svg>
