<svg width="132" height="132" viewBox="0 0 132 132" fill="none" xmlns="http://www.w3.org/2000/svg">
<circle cx="66" cy="66" r="66" fill="#F6FAFC"/>
<path d="M40 48.5H46L46.5 78H85.5L86 48.5H92V84.5H71C70.3333 85.5 68.4 87.5 66 87.5C63.6 87.5 61.6667 85.5 61 84.5H40V48.5Z" fill="#00ABDF"/>
<path d="M92.1759 46.3798H87.4781V45.9816C87.4781 45.2658 87.0312 44.6206 86.3504 44.3484C78.7216 41.3037 73.4885 41.2231 65.9948 44.0862C58.5063 41.2231 53.2732 41.3088 45.6392 44.3484C44.9584 44.6206 44.5115 45.2658 44.5115 45.9816V46.3798H39.8189C38.8159 46.3798 38 47.1712 38 48.1441V84.4985C38 85.4714 38.8159 86.2628 39.8189 86.2628H60.5019C61.7595 87.9565 63.807 89 66 89C68.1878 89 70.2405 87.9515 71.4981 86.2628H92.1811C93.1841 86.2628 94 85.4714 94 84.4985V48.1441C93.9948 47.1662 93.1841 46.3798 92.1759 46.3798ZM48.1544 75.2285C52.8211 73.6961 58.418 73.7817 62.0401 76.408H48.1544V75.2285ZM83.8404 47.1763V67.8437V71.5235C77.8693 69.8751 71.8775 70.7068 67.8189 73.5952V47.1763C73.7379 44.9936 77.9213 44.9936 83.8404 47.1763ZM83.8404 75.2285V76.408H69.9547C73.5768 73.7817 79.1737 73.7011 83.8404 75.2285ZM57.6073 45.6086V52.3885L56.8434 52.0911C56.412 51.9247 55.9235 51.9247 55.4922 52.0911L54.7283 52.3885V45.6086C55.6897 45.5279 56.6459 45.5279 57.6073 45.6086ZM48.1544 47.1763C49.1782 46.7982 50.15 46.4907 51.0906 46.2437V54.9946C51.0906 55.5793 51.392 56.1288 51.8909 56.4564C52.1975 56.6581 52.5509 56.7589 52.9094 56.7589C53.1381 56.7589 53.3667 56.7186 53.585 56.6329L56.1678 55.6297L58.7506 56.6329C59.3118 56.8496 59.9458 56.7841 60.4447 56.4564C60.9436 56.1288 61.245 55.5793 61.245 54.9946V46.2437C62.1856 46.4907 63.1522 46.7982 64.1811 47.1763V73.5952C61.51 71.6999 58.0074 70.6867 54.219 70.6867C52.2494 70.6867 50.2019 70.9589 48.1544 71.5285V67.8487V47.1763ZM90.3571 82.7292H70.464C69.7624 82.7292 69.1232 83.1224 68.8218 83.7374C68.3074 84.7909 67.2004 85.4714 66 85.4714C64.7996 85.4714 63.6926 84.7909 63.1782 83.7374C62.8768 83.1224 62.2376 82.7292 61.536 82.7292H41.6377V49.9084H44.5167V67.8487V74.0086V78.1773C44.5167 79.1502 45.3326 79.9416 46.3356 79.9416H85.6592C86.6622 79.9416 87.4781 79.1502 87.4781 78.1773V74.0086V67.8487V49.9084H90.3571V82.7292Z" fill="#1B1C1C"/>
</svg>
