<svg width="132" height="132" viewBox="0 0 132 132" fill="none" xmlns="http://www.w3.org/2000/svg">
<circle cx="66" cy="66" r="66" fill="#F6FAFC"/>
<rect x="41" y="56" width="14" height="31" fill="#00ABDF"/>
<path d="M89.0865 53.1665H70.9164C71.4217 52.1789 71.6846 51.0751 71.6846 49.9555C71.6846 46.1212 68.6425 43.0053 64.8992 43.0053C62.5789 43.0053 60.4443 44.1989 59.2017 46.1793L55.3397 51.2916L51.4933 46.1952C50.2352 44.1936 48.1057 43 45.7854 43C42.0421 43 39 46.116 39 49.9502C39 51.4553 39.4847 52.9288 40.3664 54.1277C39.5053 54.8882 39 56.0025 39 57.1697V84.9915C39 87.2044 40.7582 89 42.9135 89H89.0865C91.2469 89 93 87.1991 93 84.9915V57.175C93 54.9621 91.2418 53.1665 89.0865 53.1665ZM62.4139 64.1515C62.8109 63.8611 63.0688 63.428 63.1461 62.9369C63.2234 62.4457 63.11 61.9493 62.8264 61.5426L59.5626 56.9056H89.0865C89.2309 56.9056 89.3495 57.0271 89.3495 57.175V84.9968C89.3495 85.1447 89.2309 85.2661 89.0865 85.2661H57.1702V59.8948L59.8668 63.729C60.2071 64.2149 60.764 64.5054 61.3466 64.5054C61.7333 64.5054 62.0994 64.3839 62.4139 64.1515ZM64.925 53.1665H58.5417L62.1355 48.408C62.1716 48.3605 62.2077 48.3077 62.2386 48.2549C62.8161 47.3095 63.8112 46.7391 64.8992 46.7391C66.6265 46.7391 68.0341 48.1809 68.0341 49.9502C68.0392 51.7141 66.6368 53.1559 64.925 53.1665ZM45.7648 53.1665C44.0427 53.1559 42.6454 51.7141 42.6454 49.9555C42.6454 48.1862 44.053 46.7444 45.7803 46.7444C46.8682 46.7444 47.8634 47.3095 48.4408 48.2602C48.4718 48.313 48.5079 48.3658 48.544 48.4133L52.1378 53.1718L45.7648 53.1665ZM42.6454 57.175C42.6454 57.0271 42.764 56.9056 42.9083 56.9056H51.2664L48.4408 61.1412C47.8737 61.9915 48.0902 63.1587 48.9204 63.7396C49.7505 64.3206 50.89 64.0987 51.4572 63.2484L53.5145 60.1589V85.2661H42.9135C42.7691 85.2661 42.6505 85.1447 42.6505 84.9968V57.175H42.6454Z" fill="#1B1C1C"/>
<path d="M68.0856 66.5334H75.9229C76.9284 66.5334 77.7482 65.6937 77.7482 64.6638C77.7482 63.634 76.9284 62.7943 75.9229 62.7943H68.0856C67.0802 62.7943 66.2604 63.634 66.2604 64.6638C66.2604 65.6937 67.0802 66.5334 68.0856 66.5334Z" fill="#1B1C1C"/>
<path d="M68.0856 72.9502H82.1876C83.1931 72.9502 84.0129 72.1104 84.0129 71.0806C84.0129 70.0507 83.1931 69.211 82.1876 69.211H68.0856C67.0802 69.211 66.2604 70.0507 66.2604 71.0806C66.2604 72.1157 67.0802 72.9502 68.0856 72.9502Z" fill="#1B1C1C"/>
<path d="M68.0856 79.3722H82.1876C83.1931 79.3722 84.0129 78.5325 84.0129 77.5026C84.0129 76.4728 83.1931 75.6331 82.1876 75.6331H68.0856C67.0802 75.6331 66.2604 76.4728 66.2604 77.5026C66.2604 78.5325 67.0802 79.3722 68.0856 79.3722Z" fill="#1B1C1C"/>
</svg>
