<svg id="Layer_1" data-name="Layer 1" xmlns="http://www.w3.org/2000/svg" viewBox="0 0 338.31 114"><defs><style>.cls-1{fill:#fff;}.cls-2{fill:#fff;}</style></defs><polygon class="cls-1" points="160.09 69.89 198.02 65.96 198.02 74.06 160.09 74.06 160.09 69.89"/><polygon class="cls-1" points="166.85 62.98 166.85 67.37 198.02 61.33 198.02 52.86 166.85 62.98"/><polygon class="cls-1" points="173.97 53.41 198.02 39.22 198.02 48.37 173.97 58.17 173.97 53.41"/><polygon class="cls-2" points="38.07 62.51 50.14 62.51 50.14 59.39 38.07 59.39 38.07 51.39 50.14 51.39 50.14 48.27 34.62 48.27 34.62 74.05 50.14 74.05 50.14 70.92 38.07 70.92 38.07 62.51"/><polygon class="cls-2" points="65.06 52.24 57.29 74.05 53.49 74.05 62.95 48.27 67.17 48.27 76.63 74.05 72.83 74.05 65.06 52.24"/><polygon class="cls-2" points="147.78 74.05 152.25 74.05 152.25 48.27 152.1 48.27 149.06 48.27 149.06 69.73 137.7 48.27 133.09 48.27 133.09 74.05 136.28 74.05 136.28 52.3 147.78 74.05"/><path class="cls-2" d="M116.19,47.6c-7.5,0-12.34,5.27-12.34,13.59s4.84,13.59,12.34,13.59,12.33-5.31,12.33-13.59S123.68,47.6,116.19,47.6m0,23.92c-5.56,0-8.85-3.84-8.85-10.33,0-6.29,3.29-10.32,8.85-10.32S125,54.76,125,61.19s-3.29,10.33-8.84,10.33"/><path class="cls-2" d="M91.18,63H96v7.33a8.78,8.78,0,0,1-4.48,1c-5.6,0-9.33-3.27-9.33-10.15C82.14,54.64,86,51,91.62,51a11,11,0,0,1,7,2.17V49.59c-2.7-1.82-7.17-1.85-7.17-1.85a12.21,12.21,0,0,0-9.32,3.64c-2.53,2.51-3.58,6.3-3.58,9.78,0,3.7,1.12,7.53,3.55,9.85a13.29,13.29,0,0,0,9.35,3.56,15.79,15.79,0,0,0,7.87-1.92l.07,0V60H91.18Z"/><rect class="cls-2" x="228.45" y="50.83" width="2.98" height="23.22"/><path class="cls-2" d="M241.93,65.66h-3v6a2.14,2.14,0,0,0,2.22,2.22H255V71.43h-13Z"/><path class="cls-2" d="M218.41,50.9a7.46,7.46,0,1,0,7.47,7.42,7.3,7.3,0,0,0-7.47-7.42m0,12.32c-2.55,0-4.4-2.1-4.4-4.86s1.85-4.86,4.4-4.86,4.39,2.1,4.39,4.86-1.85,4.86-4.39,4.86"/><path class="cls-2" d="M246.86,58.05h4.94v8h3V50.83h-3v4.75h-4a9.78,9.78,0,0,0,.26-2.25h0v-2H236.16v2.58h8.53c-.23,7.62-9.3,7.14-9.3,7.14v2.4c4.84,0,7.82-1.35,9.67-3a8.62,8.62,0,0,0,1.8-2.36"/><polygon class="cls-2" points="278.52 50.83 275.54 50.83 275.54 62.1 278.52 62.1 278.52 58.05 281.42 58.05 281.42 55.58 278.52 55.58 278.52 50.83"/><path class="cls-2" d="M294.66,66.86a6.83,6.83,0,0,0,5.76-6.72,6.53,6.53,0,0,0-2.07-4.84h3.87V52.86h-7.56v-2.4h-3v2.4h-7.56V55.3H288a6.53,6.53,0,0,0-2.07,4.84,6.82,6.82,0,0,0,5.75,6.72v3.21h-9V72.5h21.09V70.07h-9ZM289,60.05a4.19,4.19,0,1,1,4.15,4.29A4.07,4.07,0,0,1,289,60.05"/><path class="cls-2" d="M271.41,62.19c-3.7,0-6.7,2.57-6.7,6s3,6,6.7,6,6.71-2.56,6.71-6-3-6-6.71-6m0,9.49a3.51,3.51,0,1,1,3.59-3.5,3.49,3.49,0,0,1-3.59,3.5"/><path class="cls-2" d="M265.79,58.47c2.39,3.08,6.7,3.06,6.7,3.06V59s-4.65,0-5.32-4.55h5V52.09H267V50.42h-3v1.67h-4.93v2.39h4.83c-.33,5.15-5.41,5.42-5.41,5.42v2.44a10.39,10.39,0,0,0,4.91-1.48,7.27,7.27,0,0,0,2.39-2.39"/></svg>
