<svg width="112" height="38" viewBox="0 0 112 38" fill="none" xmlns="http://www.w3.org/2000/svg">
<path d="M0 35.0189C4.33291 35.0189 7.77301 31.4887 7.77301 27.1388C7.77301 21.1528 12.4446 16.3742 18.3899 16.3742V19.2588C14.0601 19.2588 10.6169 22.789 10.6169 27.1388C10.6169 33.1233 5.94526 37.902 0 37.902V35.0189Z" fill="#00ABDF"/>
<path d="M34.0701 16.1099C32.7964 16.1099 31.6492 15.0402 31.6492 13.6604C31.6492 12.2837 32.7964 11.1634 34.0701 11.1634C35.428 11.1634 36.5331 12.2837 36.5331 13.6604C36.5316 15.0418 35.428 16.1099 34.0701 16.1099Z" fill="#00ABDF"/>
<path d="M45.7341 16.1099C44.4605 16.1099 43.3101 15.0402 43.3101 13.6604C43.3101 12.2837 44.4605 11.1634 45.7341 11.1634C47.092 11.1634 48.1971 12.2837 48.1971 13.6604C48.1971 15.0418 47.092 16.1099 45.7341 16.1099Z" fill="#00ABDF"/>
<path d="M68.3119 23.9899H65.4649V37.9478H68.3119V23.9899Z" fill="#00ABDF"/>
<path d="M98.5361 5.73758H101.38V24.338C105.713 24.338 109.153 20.8506 109.153 16.458H112C112 22.2304 107.667 26.8809 102.018 27.2242C107.667 27.5708 112 32.1754 112 37.9478H109.153C109.153 33.552 105.713 30.0661 101.38 30.0661V37.9478H98.5361V5.73758Z" fill="#00ABDF"/>
<path d="M84.2887 16.2887C81.1483 16.2887 78.4308 17.5767 76.5188 19.648V16.6906C77.4225 15.0671 77.9408 13.2031 77.9408 11.2077C77.9408 5.0192 72.9897 0 66.8868 0C60.7871 0 55.8392 5.0192 55.8392 11.2062C55.8392 13.1129 56.3121 14.9152 57.1456 16.488V27.1499C57.1456 31.5425 53.6212 35.117 49.3304 35.117C45.0818 35.117 41.6839 31.7133 41.5153 27.4932V25.5691H41.4451L43.3914 22.137H36.7859L38.737 25.5675H38.6667V27.1483C38.6667 31.5409 35.1424 35.1154 30.8516 35.1154C26.5187 35.1154 23.0364 31.5868 23.0364 27.191V16.3425H20.1926V27.1483C20.1926 33.2213 24.7799 38 30.8095 38C34.6304 38 38.1595 35.8876 40.0247 32.6169C41.8524 35.8464 45.2504 38 49.2867 38C55.0197 38 59.9879 33.2625 59.9879 27.1483V19.9502C61.8796 21.4867 64.2787 22.4092 66.8853 22.4092C69.4466 22.4092 71.8004 21.5151 73.6703 20.0356V37.9478H76.5173V26.8381C76.6874 22.5737 80.0838 19.1717 84.3324 19.1717C88.6232 19.1717 92.1476 22.7462 92.1476 27.1388V37.9478H94.9914V27.1388C94.993 21.0214 90.0248 16.2887 84.2887 16.2887ZM66.8868 19.6559C62.2823 19.6559 58.5535 15.8709 58.5535 11.2077C58.5535 6.53983 62.2823 2.75486 66.8868 2.75486C71.4913 2.75486 75.2249 6.53983 75.2249 11.2077C75.2233 15.8709 71.4913 19.6559 66.8868 19.6559Z" fill="#00ABDF"/>
</svg>
