<svg id="Layer_1" data-name="Layer 1" xmlns="http://www.w3.org/2000/svg" viewBox="0 0 338.31 114"><defs><style>.cls-1{fill:#63625c;}.cls-2{fill:#ec6608;}</style></defs><rect class="cls-1" x="107.18" y="50.06" width="5.64" height="43.98"/><path class="cls-1" d="M132.71,78.16H127V89.5c0,.14,0,4.19,4.19,4.19H157.4V89.07H132.71Z"/><path class="cls-1" d="M88.15,50.19a14.13,14.13,0,1,0,14.16,14.06A13.82,13.82,0,0,0,88.15,50.19m0,23.33c-4.82,0-8.32-4-8.32-9.2s3.5-9.2,8.32-9.2,8.32,4,8.32,9.2-3.49,9.2-8.32,9.2"/><path class="cls-1" d="M142.05,63.74h9.35V78.85H157V50.06H151.4v9h-7.64a17.91,17.91,0,0,0,.49-4.28V51H121.77v4.88h16.16c-.44,14.44-17.62,13.54-17.62,13.54V74c9.16,0,14.83-2.55,18.32-5.77a16.58,16.58,0,0,0,3.42-4.46"/><polygon class="cls-1" points="202 50.05 196.36 50.05 196.36 71.41 202 71.41 202 63.74 207.49 63.74 207.49 59.07 202 59.07 202 50.05"/><path class="cls-1" d="M232.57,80.42a12.92,12.92,0,0,0,10.9-12.73,12.35,12.35,0,0,0-3.92-9.15h7.34V53.92H232.57V49.36h-5.74v4.56H212.51v4.62h7.34a12.35,12.35,0,0,0-3.92,9.15,12.92,12.92,0,0,0,10.9,12.73V86.5h-17.1v4.61h39.94V86.5h-17.1Zm-10.8-12.9c0-4.66,3.24-8.19,7.93-8.19s7.93,3.53,7.93,8.19a7.79,7.79,0,0,1-8,8.12c-4.69,0-7.86-3.47-7.86-8.12"/><path class="cls-1" d="M188.54,71.58c-7,0-12.7,4.86-12.7,11.34s5.69,11.33,12.7,11.33,12.7-4.86,12.7-11.33-5.69-11.34-12.7-11.34m0,18a6.64,6.64,0,1,1,6.79-6.64,6.63,6.63,0,0,1-6.79,6.64"/><path class="cls-1" d="M177.89,64.53c4.52,5.84,12.68,5.8,12.68,5.8V65.6s-8.79,0-10.08-8.63H190V52.44h-9.8V49.28H174.5v3.16h-9.34V57h9.15c-.63,9.77-10.24,10.28-10.24,10.28v4.61a19.75,19.75,0,0,0,9.3-2.8,13.86,13.86,0,0,0,4.52-4.53"/><polygon class="cls-2" points="216.84 36.13 244.1 33.3 244.1 39.12 216.84 39.12 216.84 36.13"/><polygon class="cls-2" points="221.69 31.17 221.69 34.32 244.1 29.98 244.1 23.89 221.69 31.17"/><polygon class="cls-2" points="226.81 24.28 244.1 14.07 244.1 20.66 226.81 27.7 226.81 24.28"/><polygon class="cls-1" points="128.62 30.83 137.3 30.83 137.3 28.58 128.62 28.58 128.62 22.84 137.3 22.84 137.3 20.59 126.14 20.59 126.14 39.12 137.3 39.12 137.3 36.87 128.62 36.87 128.62 30.83"/><polygon class="cls-1" points="148.03 23.44 142.45 39.12 139.71 39.12 146.51 20.58 149.54 20.58 156.34 39.12 153.61 39.12 148.03 23.44"/><polygon class="cls-1" points="207.5 39.12 210.71 39.12 210.71 20.59 210.59 20.59 208.41 20.59 208.41 36.02 200.24 20.59 196.93 20.59 196.93 39.12 199.22 39.12 199.22 23.49 207.5 39.12"/><path class="cls-1" d="M184.78,20.11c-5.39,0-8.87,3.79-8.87,9.77s3.48,9.77,8.87,9.77,8.87-3.82,8.87-9.77-3.48-9.77-8.87-9.77m0,17.2c-4,0-6.36-2.76-6.36-7.43s2.37-7.42,6.36-7.42,6.36,2.8,6.36,7.42-2.37,7.43-6.36,7.43"/><path class="cls-1" d="M166.8,31.2h3.44v5.27a6.41,6.41,0,0,1-3.23.68c-4,0-6.7-2.35-6.7-7.3,0-4.69,2.75-7.31,6.81-7.31a7.93,7.93,0,0,1,5,1.56V21.54A11.11,11.11,0,0,0,167,20.21a8.76,8.76,0,0,0-6.69,2.61,10,10,0,0,0-2.58,7,9.94,9.94,0,0,0,2.55,7.09A9.58,9.58,0,0,0,167,39.5a11.46,11.46,0,0,0,5.66-1.38l.05,0V29H166.8Z"/></svg>